<svg xmlns="http://www.w3.org/2000/svg" viewBox="0 0 512 512">
  <path fill="#FF4D91" d="M256,48C132.3,48,32,136.2,32,248c0,57.6,28.8,109.5,74.5,145.4C96,441.5,60.8,459.7,59.3,460.4 c-4.6,2.2-7.4,7.3-6.9,12.4c0.5,5.1,4.1,9.2,9.1,10.5C125.6,499.7,181,475.4,213,456c14,2.3,28.5,3.5,43,3.5 c123.7,0,224-88.2,224-200S379.7,48,256,48z"/>
  <g fill="#FFFFFF" transform="translate(14, -20)">
    <path d="M242,350c-35,0-65-25-65-55s30-55,65-55s65,25,65,55S277,350,242,350z"/>
    <circle cx="155" cy="225" r="30" />
    <circle cx="242" cy="180" r="35" />
    <circle cx="329" cy="225" r="30" />
  </g>
</svg>