<svg xmlns="http://www.w3.org/2000/svg" width="1200" height="630" viewBox="0 0 1200 630">
  <!-- Background -->
  <rect width="1200" height="630" fill="#FFFBF0"/>
  
  <!-- Decorative Circles -->
  <circle cx="1100" cy="100" r="150" fill="#FFB7B7" opacity="0.3"/>
  <circle cx="100" cy="530" r="200" fill="#A1E9FF" opacity="0.3"/>
  <circle cx="1000" cy="550" r="100" fill="#FFF5A1" opacity="0.4"/>

  <!-- Logo Icon (Paw) -->
  <g transform="translate(450, 100) scale(1.5)">
    <path fill="#FF4D91" d="M100,20C45,20,0,60,0,110c0,25,13,49,34,65c-6,21-22,29-23,30c-2,1-3,3-3,5c0,2,2,4,4,5c29,5,54-6,69-15 c6,1,13,2,19,2c55,0,100-40,100-90S155,20,100,20z"/>
    <g fill="#FFFFFF" transform="translate(10, 20)">
        <circle cx="90" cy="110" r="35"/>
        <circle cx="45" cy="65" r="18"/>
        <circle cx="90" cy="45" r="20"/>
        <circle cx="135" cy="65" r="18"/>
    </g>
  </g>

  <!-- Text Content -->
  <text x="600" y="420" font-family="Arial, sans-serif" font-size="80" font-weight="bold" fill="#2A2420" text-anchor="middle">Hello Sounds</text>
  <text x="600" y="500" font-family="Arial, sans-serif" font-size="40" fill="#2A2420" text-anchor="middle" opacity="0.8">The World's Interactive Onomatopoeia Library</text>
  
  <!-- Subtitle Tags -->
  <rect x="350" y="540" width="500" height="50" rx="25" fill="#FFD1A1" stroke="#2A2420" stroke-width="3"/>
  <text x="600" y="575" font-family="Arial, sans-serif" font-size="24" font-weight="bold" fill="#2A2420" text-anchor="middle">Hear how the world speaks! ✨</text>
</svg>